<!DOCTYPE svg PUBLIC "-//W3C//DTD SVG 20010904//EN" "http://www.w3.org/TR/2001/REC-SVG-20010904/DTD/svg10.dtd">
<svg version="1.0" xmlns="http://www.w3.org/2000/svg" width="206px" height="317px" viewBox="0 0 2060 3170" preserveAspectRatio="xMidYMid meet">
<g id="layer101" fill="#040404" stroke="none">
<path d="M185 3149 c-82 -32 -127 -69 -158 -129 -26 -50 -28 -62 -23 -130 4 -67 21 -118 160 -473 86 -219 156 -404 156 -412 0 -8 -9 -29 -20 -47 -49 -80 -14 -195 87 -290 56 -52 100 -68 185 -68 l57 0 19 -52 c15 -41 22 -100 31 -258 6 -113 11 -226 11 -252 0 -48 0 -48 -35 -48 -70 0 -115 -43 -115 -108 0 -17 -6 -32 -14 -35 -32 -13 -49 -68 -43 -139 l6 -68 -67 0 c-139 0 -211 -74 -212 -218 0 -110 33 -172 112 -213 45 -23 134 -25 183 -5 51 21 140 7 168 -27 31 -36 128 -87 166 -87 41 0 88 24 96 50 5 15 15 20 43 20 43 0 425 -29 427 -33 23 -37 82 -105 98 -114 57 -32 134 -6 160 54 12 30 207 1382 207 1441 0 7 14 12 35 12 165 0 213 252 69 367 l-38 31 52 438 c29 242 53 458 52 482 0 82 -30 114 -181 196 -123 66 -152 65 -312 -15 -126 -63 -168 -94 -193 -142 -11 -21 -20 -129 -34 -445 -11 -229 -20 -436 -20 -459 0 -33 -4 -43 -21 -48 -78 -25 -76 -201 4 -261 l23 -18 -17 -89 c-9 -48 -19 -91 -22 -93 -5 -5 -157 106 -174 128 -15 18 -43 161 -43 218 0 33 -48 210 -150 557 -82 279 -150 525 -150 546 0 80 -53 135 -203 208 l-100 49 -106 -1 c-81 0 -118 -5 -156 -20z"/>
</g>
<g id="layer102" fill="#fb5314" stroke="none">
<path d="M237 3056 c-45 -17 -103 -59 -118 -87 -15 -29 -3 -68 24 -79 12 -5 43 -12 68 -15 26 -3 54 -14 63 -24 22 -24 248 -869 240 -896 -4 -11 -21 -42 -39 -70 -18 -27 -36 -64 -39 -81 -6 -27 -2 -35 28 -62 31 -27 44 -31 120 -37 97 -8 116 -4 116 25 0 27 27 80 41 80 6 0 28 -37 49 -83 32 -69 41 -103 55 -207 29 -231 65 -495 70 -517 5 -22 6 -22 58 -6 114 33 357 168 357 198 0 15 -59 95 -109 148 -20 21 -73 65 -118 98 -45 33 -91 74 -101 92 -24 39 -53 169 -56 252 -2 43 -43 196 -149 556 -83 280 -147 513 -147 536 0 57 -25 83 -132 139 -83 42 -101 48 -168 51 -48 2 -89 -2 -113 -11z"/>
<path d="M1632 2940 c-45 -21 -82 -42 -82 -46 0 -3 11 -19 25 -36 14 -16 25 -35 25 -42 0 -23 -110 -780 -126 -869 -9 -49 -21 -93 -28 -98 -6 -5 -22 -17 -35 -27 -35 -27 -22 -48 54 -83 36 -17 65 -35 65 -39 0 -5 -22 -98 -49 -207 -34 -138 -51 -230 -56 -303 -10 -154 -22 -174 -135 -241 -164 -96 -281 -223 -357 -386 -36 -77 -73 -207 -73 -253 0 -25 4 -28 43 -34 32 -4 530 -46 557 -46 3 0 28 -29 55 -65 26 -36 50 -63 52 -61 3 3 213 1501 213 1523 0 9 19 10 70 6 88 -7 100 1 100 71 0 49 -2 52 -60 107 -48 45 -60 62 -60 86 0 24 78 683 106 894 3 25 2 55 -4 65 -10 18 -188 124 -209 124 -5 0 -46 -18 -91 -40z m-421 -2357 c6 -6 8 -20 4 -32 -5 -18 -14 -21 -55 -21 -27 0 -61 -5 -76 -10 -25 -10 -26 -13 -20 -59 5 -38 3 -51 -10 -61 -20 -17 -28 -6 -49 66 -29 97 9 137 122 132 40 -2 77 -8 84 -15z"/>
</g>
<g id="layer103" fill="#c3bbbb" stroke="none">
<path d="M790 1727 c32 -69 41 -103 55 -207 29 -231 65 -495 70 -517 5 -22 6 -22 58 -6 114 33 357 168 357 198 0 15 -59 95 -109 148 -20 21 -73 65 -118 98 -45 33 -91 74 -101 92 -11 17 -27 68 -36 112 -9 44 -21 99 -27 123 l-12 42 -88 0 -88 0 39 -83z"/>
<path d="M1481 1491 c-34 -140 -52 -238 -57 -306 -9 -149 -21 -169 -134 -236 -164 -96 -281 -223 -357 -386 -36 -77 -73 -207 -73 -253 0 -25 4 -28 43 -34 32 -4 530 -46 557 -46 3 0 28 -29 55 -65 26 -36 50 -63 52 -61 7 7 214 1520 209 1531 -2 7 -19 15 -38 18 -18 3 -72 15 -120 25 l-87 20 -50 -207z m-270 -908 c6 -6 8 -20 4 -32 -5 -18 -14 -21 -55 -21 -27 0 -61 -5 -76 -10 -25 -10 -26 -13 -20 -59 5 -38 3 -51 -10 -61 -20 -17 -28 -6 -49 66 -29 97 9 137 122 132 40 -2 77 -8 84 -15z"/>
<path d="M764 810 c-25 -10 -39 -39 -21 -45 93 -29 88 -29 114 -2 24 24 25 25 7 35 -31 16 -77 22 -100 12z"/>
<path d="M651 647 l-21 -32 40 -18 40 -18 51 35 51 34 -58 12 c-33 6 -64 13 -71 15 -6 2 -21 -10 -32 -28z"/>
<path d="M536 365 c-9 -13 -16 -26 -16 -28 0 -2 42 -9 93 -16 50 -6 102 -14 115 -17 18 -4 23 -1 20 12 -2 12 -27 25 -77 40 -120 37 -117 36 -135 9z"/>
</g>


</svg>
